<svg width="93" height="15" viewBox="0 0 93 15" fill="none" xmlns="http://www.w3.org/2000/svg">
<path d="M21.7563 7.25826L21.5672 7.14835C20.9167 6.56385 20.0049 6.30906 18.7928 6.37401C17.7809 6.42896 16.9802 6.78866 16.3686 7.12338C16.3686 7.11338 16.3686 7.10839 16.3686 7.0984C16.3686 6.81364 16.402 6.5039 16.4409 6.20415C16.4743 5.89941 16.5132 5.58967 16.5132 5.29492C16.5132 5.00017 16.4743 4.71041 16.3631 4.47062C16.3353 4.41067 16.2685 4.3707 16.1907 4.3707C15.8627 4.3757 15.2233 4.58052 15.0731 4.70042L14.9897 4.86528C14.9897 5.19001 14.9063 6.09924 14.8229 6.20915L14.7785 6.31905C14.6395 7.61296 14.6395 8.757 14.7673 9.73617C14.784 9.83609 14.9897 9.98096 15.151 10.0359C15.3289 10.0959 15.8849 9.96098 16.2074 9.85107L16.3297 9.83608C16.4298 9.82609 16.4909 9.75116 16.4854 9.64625L16.4909 9.36648C16.7245 8.52219 17.6585 7.51305 18.765 7.36317C19.3933 7.27325 19.8881 7.41813 20.2773 7.8028C20.3273 7.87274 20.4441 8.47723 20.0327 9.17664C19.7269 9.6962 19.1097 10.1308 18.3035 10.4006C17.5362 10.6604 16.6967 10.7653 15.6569 10.7353C15.6125 10.7103 14.6839 10.1458 14.6839 10.1458C13.8611 9.62626 12.838 8.97681 11.9095 8.66208C11.7483 8.60712 11.4536 8.38731 11.2757 8.25742L11.1811 8.18748C10.6474 7.8028 9.62435 7.19332 8.80703 6.70373C8.80703 6.70373 8.44007 6.47892 8.36779 6.43895C8.36779 6.40898 8.36779 6.35402 8.36779 6.35402C8.39003 6.32905 8.90711 6.05428 8.90711 6.05428C9.62435 5.6746 9.95795 5.48975 10.0302 5.39483C10.0135 5.40982 10.1247 5.34488 10.1247 5.34488C10.1303 5.34488 11.9095 4.43564 11.9095 4.43564C13.622 3.59136 15.5624 2.63217 16.5799 1.68297L16.6299 1.53809L16.6522 1.4082C16.7189 1.20337 16.7245 1.04851 16.6689 0.868657C16.6522 0.8187 16.6021 0.75875 16.5299 0.748759C15.7348 0.678818 14.7062 1.10845 13.7721 1.89279C13.5608 2.06765 13.3829 2.15757 13.1994 2.24749L13.0549 2.31743C12.0263 2.84199 9.70219 4.1359 8.49011 4.83531C8.56795 3.6613 8.81259 1.99271 9.10727 0.598885L9.07391 0.434025L8.94603 0.224202L8.85151 0.0743283H8.82371C8.57907 -0.0405747 8.38447 0.00438735 8.23991 0.034362L7.99527 0.114295L7.67279 0.219206C7.61163 0.229198 7.56159 0.264168 7.53935 0.324117C6.96111 1.58305 6.47739 3.6563 6.36063 5.3149C5.19859 4.65046 4.13108 4.17586 3.60288 3.94606H3.5862L3.52504 3.92608C3.336 3.90609 3.10248 3.7812 2.88564 3.6563C2.8634 3.64132 2.4464 3.40152 2.4464 3.40152L1.77364 3.01185L1.59572 2.97688C1.3066 3.02184 0.750599 3.35656 0.583799 3.58636C0.561559 3.61634 0.550439 3.65131 0.550439 3.68128C0.550439 3.73124 0.567119 3.7762 0.583799 3.82616L0.611599 3.95105L0.644959 4.02599C0.967439 4.32574 1.78476 4.82032 2.57984 5.205L3.50836 5.64462L4.92615 6.33904L5.16523 6.51389L5.33203 6.59882C5.33203 6.59882 5.35427 6.60881 5.36539 6.61381C4.98731 6.84361 2.78556 8.1625 2.78556 8.1625L1.42892 8.97181C1.30104 9.05175 0.767279 9.26657 0.644959 9.30653C0.35028 9.41644 0.12788 9.5813 0.03892 9.76115L0 9.83109L0.03892 9.87605L0.14456 9.94599L0.28356 10.0259L0.43368 10.1158L0.572679 10.1358C0.811759 10.1458 1.16204 10.0209 1.82368 9.76115C2.42972 9.52135 4.07548 8.62711 4.78159 8.24743L5.08183 8.08756C5.20415 8.09755 5.34315 8.00263 5.46547 7.9177C5.60447 7.81779 5.91583 7.64793 6.09931 7.573C6.10487 7.573 6.21051 7.51804 6.31059 7.46808C6.31059 7.49806 6.31059 7.53802 6.31059 7.53802C6.34395 9.47139 6.46627 10.8802 6.69979 11.9643V11.9843L6.72759 12.0292C6.84435 12.1841 6.97779 12.6387 7.09455 13.0434L7.36143 13.8527L7.43927 13.9276C7.59495 14.0225 8.06199 14.1824 8.37335 14.1474L8.45119 14.1375L8.50123 14.0375C8.52903 13.9176 8.53459 13.7977 8.53459 13.6678C8.53459 13.518 8.52347 13.3581 8.50679 13.1583L8.48455 12.8685C8.38447 11.5197 8.28995 9.56631 8.28995 8.26741V8.1625C8.54571 8.30738 9.66327 8.93684 9.66327 8.93684C11.5648 10.0459 14.4393 11.7195 16.174 12.1641C16.263 12.1891 16.3575 12.1691 16.4242 12.1142L16.6911 11.9593L16.7411 11.9393C16.8412 11.8943 16.9079 11.7445 16.9191 11.5846C18.3813 11.5197 20.4219 11.0101 21.5172 9.77614C21.9397 9.29654 22.1288 8.71203 22.1288 8.21246C22.1288 7.8028 22.0009 7.4481 21.7729 7.25327" fill="#FCAF17"/>
<path d="M55.4676 6.50281V8.09697H59.2872V12.2566H57.9799V9.20549H50.3194V8.09697H54.1658V6.50281H49.5178V5.39429H57.9207V3.18781H50.4593V2.08984H59.228V5.38901H60.1586V6.50281H55.4676Z" fill="#776C61"/>
<path d="M66.3513 6.23951H62.7685V3.35208H66.3513V6.23951ZM67.6478 2.23828H61.472V7.35331H67.6478V2.23828Z" fill="#776C61"/>
<path d="M70.8424 12.2135H62.6493V8.45508H63.9512V11.105H70.8424V12.2135Z" fill="#776C61"/>
<path d="M70.7404 1.99219H69.444V8.71193H70.7404V1.99219Z" fill="#776C61"/>
<path d="M82.5379 8.44699V7.34375H71.9025V8.44699H73.0483V12.2107H81.5588V11.1022H74.3502V8.44699H82.5379Z" fill="#776C61"/>
<path d="M77.2177 5.61288C75.8728 5.61288 74.7861 5.15363 74.7861 4.13485C74.7861 3.11607 75.8728 2.65682 77.2177 2.65682C78.5626 2.65682 79.6546 3.12134 79.6546 4.13485C79.6546 5.14835 78.5626 5.61288 77.2177 5.61288ZM77.2177 1.49023C75.1196 1.49023 73.4143 2.36122 73.4143 4.13485C73.4143 5.90848 75.1196 6.77946 77.2177 6.77946C79.3157 6.77946 81.021 5.89265 81.021 4.13485C81.021 2.37705 79.3157 1.49023 77.2177 1.49023Z" fill="#776C61"/>
<path d="M89.2565 7.02413H90.5207V5.0024H91.2415V7.35141H92.5057V1.98828H91.2415V3.94139H90.5207V1.98828H89.2565V7.02413Z" fill="#776C61"/>
<path d="M88.6758 2.44034H86.3734V1.54297H85.0769V2.44034H82.7583V3.52247H83.6836C83.2209 3.87086 82.9412 4.37234 82.9412 5.03745C82.9412 6.42574 84.1839 7.1278 85.7171 7.1278C87.2503 7.1278 88.4929 6.42574 88.4929 5.03745C88.4929 4.37234 88.2078 3.86558 87.7452 3.52247H88.6705V2.44034H88.6758ZM85.7171 5.96122C84.9209 5.96122 84.2807 5.62338 84.2807 4.86853C84.2807 4.11368 84.9209 3.77057 85.7171 3.77057C86.5133 3.77057 87.1534 4.11368 87.1534 4.86853C87.1534 5.62338 86.5079 5.96122 85.7171 5.96122Z" fill="#776C61"/>
<path d="M88.7888 11.5033C87.46 11.5033 86.3841 11.0493 86.3841 10.02C86.3841 8.99064 87.46 8.53668 88.7888 8.53668C90.1175 8.53668 91.1934 9.0012 91.1934 10.02C91.1934 11.0388 90.1175 11.5033 88.7888 11.5033ZM88.7888 7.39648C86.7122 7.39648 85.0392 8.26219 85.0392 10.0253C85.0392 11.7883 86.7176 12.6488 88.7888 12.6488C90.8599 12.6488 92.5383 11.7672 92.5383 10.0253C92.5383 8.2833 90.8599 7.39648 88.7888 7.39648Z" fill="#776C61"/>
<path d="M37.5101 2.10352H42.6046C45.0308 2.10352 46.295 2.89004 46.295 4.62144C46.295 5.85137 45.4235 6.69596 44.2561 6.92294V6.96517C45.9238 7.16048 46.7146 8.23205 46.7146 9.44614C46.7146 10.9664 45.5795 12.2808 42.766 12.2808H37.5101V2.10352ZM39.1617 6.3898H42.5239C43.772 6.3898 44.6973 5.92527 44.6973 4.84314C44.6973 3.89826 44.24 3.26482 42.3356 3.26482H39.1617V6.3898ZM39.1617 11.1248H42.4217C44.4444 11.1248 44.9824 10.3488 44.9824 9.36169C44.9824 8.1951 44.1593 7.54582 42.3356 7.54582H39.1617V11.1248Z" fill="#776C61"/>
<path d="M26.2942 2.10352H27.9511V6.65373L33.5244 2.10352H35.8699L29.9792 6.69596L36.3594 12.2755H34.0139L27.9511 6.82265V12.2755H26.2942V2.10352Z" fill="#776C61"/>
</svg>
