<svg width="104" height="21" viewBox="0 0 104 21" fill="none" xmlns="http://www.w3.org/2000/svg">
<path d="M39.7952 11.3171C37.2466 10.8044 35.0447 9.10718 34.0218 6.9326C32.9988 9.10718 30.7969 10.8044 28.2483 11.3171L27.4855 9.81437C30.5716 9.24862 33.0855 6.73812 33.0855 4.2453V3.04309H34.9753V4.2453C34.9753 6.79116 37.4893 9.24862 40.5754 9.81437L39.7952 11.3171ZM41.1822 14.4287V15.9315H27V14.4287H41.1822Z" fill="black"/>
<path d="M57.1662 9.77901H54.7216V18H52.9358V2H54.7216V8.27624H57.1662V9.77901ZM45.0298 12.7669C47.5264 12.7669 49.4336 12.6608 51.6355 12.2895L51.8088 13.7746C49.4162 14.1459 47.2837 14.2519 44.5097 14.2519H43.244V3.39669H50.5605V4.89945H45.0298V7.86961H50.2658V9.33702H45.0298V12.7669Z" fill="black"/>
<path d="M61.6726 3.87403H59.4534V2.47735H71.0523V3.87403H68.8504V6.45525H70.9656V7.83425H59.5401V6.45525H61.6726V3.87403ZM67.0646 3.87403H63.4584V6.45525H67.0646V3.87403ZM72.37 8.94807V10.3978H58.1877V8.94807H72.37ZM61.6726 16.4796H71.035V17.8409H59.9042V14.0221H68.8331V12.9083H59.8695V11.5646H70.5842V15.2773H61.6726V16.4796Z" fill="black"/>
<path d="M83.6207 11.4762H81.9563V2.31823H83.6207V6.04862H85.3545V2.01768H87.0536V12.8199H85.3545V7.5337H83.6207V11.4762ZM81.2802 10.8398C79.4077 11.2287 77.83 11.2994 75.524 11.2994H74.4664V6.49061H78.6275V4.65193H74.4318V3.21989H80.3613V7.85193H76.2002V9.83204C78.0727 9.81436 79.4944 9.72597 81.1068 9.39006L81.2802 10.8398ZM82.6498 12.4663C82.6498 14.358 84.7997 16.0906 87.8164 16.5149L87.123 17.9293C84.6783 17.5227 82.7538 16.3912 81.7829 14.7646C80.812 16.3912 78.8529 17.5227 76.4083 17.9293L75.7148 16.5149C78.7315 16.0906 80.8814 14.358 80.8814 12.4663V12.1127H82.6498V12.4663Z" fill="black"/>
<path d="M103.575 9.92044V11.3702H89.3755V9.92044H95.565V8.34696H90.7452V6.87956H92.8777V3.94475H90.6585V2.47735H102.257V3.94475H100.055V6.87956H102.171V8.34696H97.3681V9.92044H103.575ZM94.6635 6.87956H98.2697V3.94475H94.6635V6.87956ZM91.0919 12.6785H101.841V17.7878H91.0919V12.6785ZM92.8604 16.3381H100.09V14.1282H92.8604V16.3381Z" fill="black"/>
<path d="M2.33805 17.7007H0V2.29925H2.33805V17.7007ZM2.78148 9.4414L8.36458 2.29925H11.0453L5.42186 9.4414L11.8515 17.7007H9.17081L2.78148 9.4414Z" fill="black"/>
<path d="M21.2588 9.62095C22.0516 9.84705 22.7033 10.2859 23.2139 10.9377C23.738 11.5761 24 12.3674 24 13.3117C24 13.99 23.8858 14.6151 23.6574 15.187C23.4289 15.7589 23.0796 16.2577 22.6093 16.6833C22.1524 17.0956 21.5679 17.4214 20.8557 17.6608C20.1436 17.8869 19.3037 18 18.3363 18C17.3822 18 16.4887 17.9534 15.6556 17.8603C14.8225 17.7672 14.023 17.6475 13.257 17.5012V2.73815C14.0498 2.56525 14.8964 2.399 15.7967 2.2394C16.6969 2.0798 17.5435 2 18.3363 2C19.1022 2 19.7875 2.09975 20.3921 2.29925C20.9968 2.49875 21.5141 2.78471 21.9441 3.15711C22.3741 3.51621 22.7033 3.95511 22.9318 4.47382C23.1602 4.99252 23.2744 5.56442 23.2744 6.18953C23.2744 6.58853 23.2139 6.96758 23.093 7.32668C22.9855 7.68579 22.8377 8.01829 22.6496 8.32419C22.4615 8.61679 22.2465 8.87614 22.0046 9.10224C21.7627 9.31505 21.5141 9.48795 21.2588 9.62095ZM21.6619 13.3117C21.6619 12.4073 21.3529 11.729 20.7348 11.2768C20.1301 10.8113 19.2433 10.5786 18.0742 10.5786H15.5951V15.8653C16.052 15.9318 16.4887 15.9717 16.9052 15.985C17.3218 15.9983 17.7316 16.005 18.1347 16.005C19.2903 16.005 20.1637 15.7722 20.7549 15.3067C21.3596 14.8412 21.6619 14.1762 21.6619 13.3117ZM18.0944 8.62344C19.0216 8.62344 19.727 8.40399 20.2107 7.96509C20.6945 7.52619 20.9363 6.94098 20.9363 6.20948C20.9363 5.50457 20.7079 4.95927 20.2511 4.57357C19.8076 4.18786 19.1022 3.99501 18.1347 3.99501C17.6779 3.99501 17.2344 4.03491 16.8044 4.11471C16.3879 4.18121 15.9848 4.26101 15.5951 4.35412V8.62344H18.0944Z" fill="black"/>
</svg>
