<svg width="100" height="17" viewBox="0 0 100 17" fill="none" xmlns="http://www.w3.org/2000/svg">
<path d="M15.0975 1.12891H21.9549C25.2206 1.12891 26.9223 2.2322 26.9223 4.66094C26.9223 6.38623 25.7492 7.57098 24.1779 7.88938V7.94862C26.4226 8.22259 27.4871 9.72574 27.4871 11.4288C27.4871 13.5614 25.9592 15.4051 22.1721 15.4051H15.0975V1.12891ZM17.3206 7.14151H21.8462C23.5262 7.14151 24.7716 6.48989 24.7716 4.97194C24.7716 3.6465 24.1562 2.75794 21.5928 2.75794H17.3206V7.14151ZM17.3206 13.7835H21.7087C24.4313 13.7835 25.1554 12.695 25.1554 11.3103C25.1554 9.67391 24.0475 8.76313 21.5928 8.76313H17.3206V13.7835Z" fill="#222222"/>
<path d="M0 1.12891H2.23026V7.51915L9.73204 1.12891H12.8892L4.96016 7.57838L13.5409 15.4051H10.391L2.23026 7.75609V15.4051H0V1.12891Z" fill="#222222"/>
<path d="M44.2288 7.83907H41.9408V16.7147H40.0613V1.17382H41.9408V6.17276H44.2288V7.83907ZM36.0246 10.4406V3.69029H32.3311V10.2025C32.3311 10.5312 32.4837 10.6899 32.7887 10.6786L36.0246 10.4406ZM37.8714 11.8518L32.2984 12.3619C31.6992 12.4073 31.247 12.2599 30.942 11.9198C30.6369 11.5798 30.4844 11.098 30.4844 10.4746V2.04098H37.4791C37.7406 2.04098 37.8714 2.17701 37.8714 2.44906V11.8518Z" fill="#222222"/>
<path d="M58.2084 10.1345H44.4803V8.5192H58.2084V10.1345ZM54.5639 15.2355V12.855H48.1411V14.8444C48.1411 15.1051 48.2664 15.2355 48.517 15.2355H54.5639ZM47.945 16.8848C46.8446 16.8848 46.2944 16.3123 46.2944 15.1674V11.2057H56.4106V16.4767C56.4106 16.7487 56.2799 16.8848 56.0184 16.8848H47.945ZM51.3443 7.68604C50.6797 7.68604 50.0696 7.61236 49.5139 7.465C48.9692 7.31764 48.4952 7.10226 48.0921 6.81888C47.6999 6.53549 47.3893 6.18409 47.1605 5.76468C46.9426 5.34527 46.8337 4.86351 46.8337 4.31941C46.8337 3.77531 46.9426 3.29355 47.1605 2.87414C47.3893 2.45473 47.6999 2.10333 48.0921 1.81994C48.4952 1.53655 48.9692 1.32118 49.5139 1.17382C50.0696 1.02646 50.6797 0.952779 51.3443 0.952779C52.0089 0.952779 52.6136 1.02646 53.1584 1.17382C53.7141 1.32118 54.188 1.53655 54.5802 1.81994C54.9834 2.10333 55.2939 2.45473 55.5118 2.87414C55.7406 3.29355 55.855 3.77531 55.855 4.31941C55.855 4.86351 55.7406 5.34527 55.5118 5.76468C55.2939 6.18409 54.9834 6.53549 54.5802 6.81888C54.188 7.10226 53.7141 7.31764 53.1584 7.465C52.6136 7.61236 52.0089 7.68604 51.3443 7.68604ZM51.3443 2.55108C50.5054 2.55108 49.8517 2.70977 49.3832 3.02717C48.9147 3.33322 48.6804 3.76397 48.6804 4.31941C48.6804 4.87485 48.9147 5.31126 49.3832 5.62865C49.8517 5.93471 50.5054 6.08774 51.3443 6.08774C52.1833 6.08774 52.837 5.93471 53.3055 5.62865C53.774 5.31126 54.0082 4.87485 54.0082 4.31941C54.0082 3.76397 53.774 3.33322 53.3055 3.02717C52.837 2.70977 52.1833 2.55108 51.3443 2.55108Z" fill="#222222"/>
<path d="M59.9798 2.44906C59.9798 2.17701 60.1105 2.04098 60.372 2.04098H67.187V3.7243H61.8592V9.96447C61.8592 10.2252 61.9845 10.3555 62.2351 10.3555C62.7036 10.3555 63.1176 10.3555 63.4772 10.3555C63.8367 10.3442 64.2507 10.3329 64.7192 10.3215C65.373 10.2989 66.0103 10.2592 66.6314 10.2025C67.2524 10.1458 67.8407 10.0665 68.3964 9.96447L68.5108 11.4437C68.3038 11.5004 68.0586 11.5628 67.7754 11.6308C67.4921 11.6875 67.1816 11.7441 66.8438 11.8008C66.517 11.8462 66.1683 11.8858 65.7979 11.9198C65.4274 11.9538 65.0515 11.9765 64.6702 11.9878C64.1472 12.0105 63.6406 12.0275 63.1503 12.0389C62.66 12.0389 62.1534 12.0389 61.6304 12.0389C60.53 12.0389 59.9798 11.4664 59.9798 10.3215V2.44906ZM65.7325 7.60102V5.93471H69.6711V1.17382H71.5506V16.7147H69.6711V7.60102H65.7325Z" fill="#222222"/>
<path d="M76.7213 3.1972V0.884766H78.6008V3.1972H82.2126V4.8125H73.0769V3.1972H76.7213ZM77.6038 13.2461C77.0809 13.2461 76.5797 13.1667 76.1003 13.008C75.6209 12.8493 75.2014 12.617 74.8419 12.3109C74.4823 11.9935 74.1936 11.5968 73.9757 11.1207C73.7687 10.6446 73.6652 10.0892 73.6652 9.45437C73.6652 8.81959 73.7687 8.26415 73.9757 7.78806C74.1936 7.31197 74.4823 6.9209 74.8419 6.61484C75.2014 6.29745 75.6209 6.0594 76.1003 5.90071C76.5797 5.74201 77.0809 5.66266 77.6038 5.66266C78.1268 5.66266 78.628 5.74201 79.1074 5.90071C79.5868 6.0594 80.0063 6.29745 80.3658 6.61484C80.7253 6.9209 81.0086 7.31197 81.2156 7.78806C81.4335 8.26415 81.5425 8.81959 81.5425 9.45437C81.5425 10.0892 81.4335 10.6446 81.2156 11.1207C81.0086 11.5968 80.7253 11.9935 80.3658 12.3109C80.0063 12.617 79.5868 12.8493 79.1074 13.008C78.628 13.1667 78.1268 13.2461 77.6038 13.2461ZM77.6038 7.29497C77.0155 7.29497 76.5198 7.47633 76.1166 7.83907C75.7135 8.2018 75.512 8.74024 75.512 9.45437C75.512 10.1685 75.7135 10.7069 76.1166 11.0697C76.5198 11.4324 77.0155 11.6138 77.6038 11.6138C78.1922 11.6138 78.6879 11.4324 79.0911 11.0697C79.4942 10.7069 79.6957 10.1685 79.6957 9.45437C79.6957 8.74024 79.4942 8.2018 79.0911 7.83907C78.6879 7.47633 78.1922 7.29497 77.6038 7.29497ZM87.3933 8.85926H85.1053V16.7147H83.2258V1.17382H85.1053V7.19295H87.3933V8.85926Z" fill="#222222"/>
<path d="M100 16.7147H98.1206V1.17382H100V16.7147ZM95.375 4.2684C95.375 5.3226 95.1789 6.29178 94.7867 7.17594C94.3944 8.04877 93.8769 8.84226 93.2341 9.55639C92.6021 10.2592 91.8831 10.8883 91.0768 11.4437C90.2815 11.9878 89.4697 12.4526 88.6417 12.838L87.8082 11.4607C88.6145 11.0527 89.3608 10.6106 90.0472 10.1345C90.7445 9.65841 91.3492 9.13698 91.8613 8.57021C92.3733 8.00343 92.771 7.37998 93.0543 6.69986C93.3485 6.00839 93.4956 5.25458 93.4956 4.43843V3.7413H88.2495V2.05799H94.8193C95.1898 2.05799 95.375 2.25069 95.375 2.63609V4.2684Z" fill="#222222"/>
</svg>
