<svg width="80" height="21" viewBox="0 0 80 21" fill="none" xmlns="http://www.w3.org/2000/svg">
<path d="M11.3439 0.968634H13.42V9.51199C13.42 9.82195 13.2717 9.97694 12.9751 9.97694H4.02228C2.7742 9.97694 2.15016 9.32472 2.15016 8.02029V0.968634H4.24471V3.87454H11.3254L11.3439 0.968634ZM15.5701 14.8007H0V12.8828H15.5701V14.8007ZM11.3254 8.09778V5.6762H4.24471V7.65221C4.24471 7.94926 4.38682 8.09778 4.67103 8.09778H11.3254Z" fill="#222222"/>
<path d="M31.3328 13.0766H29.3124V6.50922H27.7739V12.6891H25.7906V0.0968633H27.7739V4.6107H29.3124V0H31.3328V13.0766ZM31.7962 17.6873H22.139C20.891 17.6873 20.2669 17.0351 20.2669 15.7306V12.2823H22.3986V15.3238C22.3986 15.6208 22.5407 15.7694 22.8249 15.7694H31.7962V17.6873ZM23.9556 6.25738H19.3772V7.82657C19.3772 8.12362 19.5193 8.27214 19.8035 8.27214C20.026 8.27214 20.2175 8.27214 20.3781 8.27214C20.5511 8.27214 20.7118 8.27214 20.8601 8.27214C21.0084 8.27214 21.1505 8.27214 21.2864 8.27214C21.4347 8.25922 21.5953 8.24631 21.7683 8.23339C22.312 8.20756 22.8002 8.17528 23.2327 8.13653C23.6775 8.09778 24.2089 8.02675 24.8267 7.92343L24.9565 9.57011C24.4869 9.71218 23.9865 9.82841 23.4551 9.91882C22.9361 9.99631 22.3553 10.0544 21.7127 10.0932C21.4656 10.1061 21.2493 10.119 21.064 10.1319C20.8786 10.1319 20.6933 10.1384 20.5079 10.1513C20.3349 10.1513 20.1434 10.1513 19.9333 10.1513C19.7356 10.1513 19.4884 10.1513 19.1918 10.1513C17.9438 10.1513 17.3197 9.49908 17.3197 8.19465V4.41697H21.8981V2.57657H17.3197V0.697416H23.5107C23.8073 0.697416 23.9556 0.852398 23.9556 1.16236V6.25738Z" fill="#222222"/>
<path d="M48.9491 14.8007H33.379V12.8828H48.9491V14.8007ZM35.5292 1.53044C35.5292 1.22048 35.6775 1.0655 35.974 1.0655H46.8546V2.98339H37.6608V7.20664C37.6608 7.50369 37.8029 7.65221 38.0871 7.65221H47.0585V9.57011H37.4013C36.1532 9.57011 35.5292 8.9179 35.5292 7.61347V1.53044Z" fill="#222222"/>
<path d="M53.0528 8.21402C53.4111 8.2786 53.8004 8.33672 54.2205 8.38838C54.6407 8.42712 55.0608 8.44649 55.481 8.44649C56.346 8.44649 57.038 8.22694 57.557 7.78782C58.076 7.33579 58.3355 6.58672 58.3355 5.54059C58.3355 4.49446 58.0822 3.75184 57.5755 3.31273C57.0689 2.8607 56.3707 2.63469 55.481 2.63469C55.0608 2.63469 54.6407 2.67989 54.2205 2.7703C53.8004 2.84779 53.4111 2.93173 53.0528 3.02214V8.21402ZM53.0528 15.9437H50.9026V1.41421C51.261 1.33672 51.6441 1.25277 52.0519 1.16236C52.4596 1.07196 52.8674 0.994464 53.2752 0.929889C53.6954 0.865313 54.1093 0.813653 54.5171 0.774907C54.9249 0.723246 55.308 0.697416 55.6663 0.697416C56.4078 0.697416 57.0751 0.82011 57.6682 1.0655C58.2614 1.29797 58.768 1.62731 59.1882 2.05351C59.6083 2.4797 59.9296 2.98985 60.152 3.58395C60.3744 4.17804 60.4857 4.83026 60.4857 5.54059C60.4857 6.25092 60.3683 6.90314 60.1335 7.49723C59.9111 8.09133 59.5898 8.60148 59.1696 9.02767C58.7618 9.45387 58.2614 9.78967 57.6682 10.0351C57.0751 10.2675 56.4078 10.3838 55.6663 10.3838C55.2462 10.3838 54.8137 10.3644 54.3688 10.3256C53.9363 10.2869 53.4976 10.2352 53.0528 10.1707V15.9437Z" fill="#222222"/>
<path d="M67.5506 11.0037C67.1551 10.9004 66.7906 10.8358 66.457 10.81C66.1233 10.7712 65.7773 10.7518 65.419 10.7518C64.7393 10.7518 64.1956 10.9004 63.7878 11.1974C63.38 11.4815 63.1761 11.94 63.1761 12.5729C63.1761 13.1153 63.3615 13.5415 63.7322 13.8515C64.1029 14.1614 64.6404 14.3164 65.3448 14.3164C65.938 14.3164 66.4014 14.2841 66.735 14.2196C67.081 14.1421 67.3529 14.0775 67.5506 14.0258V11.0037ZM67.5691 8.60148C67.5691 8.0203 67.4085 7.55535 67.0872 7.20664C66.7783 6.84502 66.284 6.66421 65.6043 6.66421C65.0112 6.66421 64.4613 6.69649 63.9546 6.76107C63.4603 6.82565 62.9784 6.90314 62.5088 6.99354L62.1937 5.42435C62.4409 5.33395 62.7189 5.25 63.0278 5.17251C63.3368 5.0821 63.6519 5.01107 63.9732 4.95941C64.2944 4.89483 64.6096 4.84317 64.9185 4.80443C65.2274 4.76568 65.5055 4.74631 65.7526 4.74631C67.0254 4.74631 67.9954 5.06273 68.6627 5.69557C69.3424 6.32841 69.6822 7.31642 69.6822 8.65959V15.5369C69.4968 15.6015 69.2497 15.6725 68.9408 15.75C68.6442 15.8275 68.2982 15.8985 67.9028 15.9631C67.5197 16.0406 67.0934 16.1052 66.6238 16.1568C66.1542 16.2085 65.6723 16.2343 65.178 16.2343C63.8681 16.2343 62.8487 15.9114 62.1196 15.2657C61.4029 14.607 61.0445 13.7094 61.0445 12.5729C61.0445 11.3847 61.4276 10.4742 62.1937 9.84133C62.9599 9.20849 63.9793 8.89207 65.2521 8.89207C65.6846 8.89207 66.0924 8.93081 66.4755 9.0083C66.8586 9.07288 67.2231 9.15683 67.5691 9.26015V8.60148Z" fill="#222222"/>
<path d="M77.924 5.0369H80L76.5153 15.6725C76.0457 17.0544 75.3846 18.2168 74.5319 19.1596C73.6916 20.1153 72.666 20.7288 71.455 21L71.0287 19.3533C71.3747 19.2371 71.7145 19.0821 72.0481 18.8884C72.3818 18.7076 72.6969 18.4816 72.9935 18.2103C73.29 17.9391 73.5557 17.6227 73.7905 17.2611C74.0376 16.9124 74.2415 16.5055 74.4022 16.0406L70.8062 5.0369H72.8822L75.3846 12.941L77.924 5.0369Z" fill="#222222"/>
</svg>
